<?xml version="1.0" encoding="UTF-8" standalone="no"?>
<svg
   width="128px"
   height="128px"
   viewBox="0 0 128 128"
   version="1.1"
   id="svg7"
   sodipodi:docname="computer_sync.svg"
   inkscape:version="1.2 (dc2aedaf03, 2022-05-15)"
   inkscape:export-filename="logo_light.png"
   inkscape:export-xdpi="96"
   inkscape:export-ydpi="96"
   xmlns:inkscape="http://www.inkscape.org/namespaces/inkscape"
   xmlns:sodipodi="http://sodipodi.sourceforge.net/DTD/sodipodi-0.dtd"
   xmlns="http://www.w3.org/2000/svg"
   xmlns:svg="http://www.w3.org/2000/svg">
  <defs
     id="defs11" />
  <sodipodi:namedview
     id="namedview9"
     pagecolor="#505050"
     bordercolor="#eeeeee"
     borderopacity="1"
     inkscape:pageshadow="0"
     inkscape:pageopacity="0"
     inkscape:pagecheckerboard="0"
     showgrid="false"
     inkscape:zoom="1.4042969"
     inkscape:cx="68.361613"
     inkscape:cy="86.876216"
     inkscape:window-width="1920"
     inkscape:window-height="1011"
     inkscape:window-x="0"
     inkscape:window-y="0"
     inkscape:window-maximized="1"
     inkscape:current-layer="surface1"
     inkscape:showpageshadow="0"
     inkscape:deskcolor="#505050" />
  <g
     id="surface1">
    <path
       id="path2"
       style="fill:#2a7fff;fill-opacity:1;fill-rule:nonzero;stroke:none"
       d="M 25.150391 5.7480469 C 14.419932 5.7480469 5.7207031 14.447277 5.7207031 25.177734 L 5.7207031 102.82227 C 5.7207031 113.55271 14.419932 122.25195 25.150391 122.25195 L 102.84961 122.25195 C 113.58007 122.25195 122.2793 113.55271 122.2793 102.82227 L 122.2793 25.177734 C 122.2793 14.447276 113.58007 5.7480469 102.84961 5.7480469 L 25.150391 5.7480469 z M 39.267578 25.148438 L 45.257812 33.802734 C 50.706757 30.406453 57.100595 28.386719 64 28.386719 C 83.66541 28.386719 99.613281 44.331353 99.613281 64 C 99.613281 67.373622 99.115681 70.620946 98.238281 73.712891 L 91.435547 73.712891 C 92.520156 70.669513 93.138672 67.409235 93.138672 64 C 93.138672 47.934842 80.068395 34.861328 64 34.861328 C 58.476591 34.861328 53.328352 36.427994 48.931641 39.115234 L 54.943359 47.8125 L 32.300781 47.8125 L 39.267578 25.148438 z M 29.761719 54.287109 L 36.560547 54.287109 C 35.479176 57.330488 34.861328 60.590767 34.861328 64 C 34.861328 80.065158 47.931605 93.138672 64 93.138672 C 69.510458 93.138672 74.649494 91.578585 79.042969 88.904297 L 73.037109 80.224609 L 95.679688 80.224609 L 88.712891 102.85156 L 82.712891 94.216797 C 77.270422 97.603366 70.886455 99.613281 64 99.613281 C 44.331353 99.613281 28.386719 83.668649 28.386719 64 C 28.386719 60.626381 28.88432 57.379052 29.761719 54.287109 z M 64 54.287109 C 69.364766 54.287109 73.712891 58.635234 73.712891 64 C 73.712891 69.364767 69.364766 73.712891 64 73.712891 C 58.635234 73.712891 54.287109 69.364767 54.287109 64 C 54.287109 58.635234 58.635234 54.287109 64 54.287109 z " />
  </g>
</svg>
