<?xml version="1.0" encoding="UTF-8" standalone="no"?>
<svg
   width="128px"
   height="128px"
   viewBox="0 0 128 128"
   version="1.1"
   id="svg7"
   sodipodi:docname="computer_sync.svg"
   inkscape:version="1.2 (dc2aedaf03, 2022-05-15)"
   xmlns:inkscape="http://www.inkscape.org/namespaces/inkscape"
   xmlns:sodipodi="http://sodipodi.sourceforge.net/DTD/sodipodi-0.dtd"
   xmlns="http://www.w3.org/2000/svg"
   xmlns:svg="http://www.w3.org/2000/svg">
  <defs
     id="defs11" />
  <sodipodi:namedview
     id="namedview9"
     pagecolor="#505050"
     bordercolor="#eeeeee"
     borderopacity="1"
     inkscape:pageshadow="0"
     inkscape:pageopacity="0"
     inkscape:pagecheckerboard="0"
     showgrid="false"
     inkscape:zoom="1.9859757"
     inkscape:cx="76.033156"
     inkscape:cy="39.778936"
     inkscape:window-width="1920"
     inkscape:window-height="1011"
     inkscape:window-x="0"
     inkscape:window-y="0"
     inkscape:window-maximized="1"
     inkscape:current-layer="surface1"
     inkscape:showpageshadow="0"
     inkscape:deskcolor="#505050" />
  <g
     id="surface1">
    <path
       style="fill:#f0f0f0;fill-opacity:1;fill-rule:nonzero;stroke:none"
       d="m 25.150389,5.7480495 h 77.699221 c 10.73047,0 19.42969,8.6992185 19.42969,19.4296875 v 77.644533 c 0,10.73046 -8.69922,19.42968 -19.42969,19.42968 H 25.150389 c -10.730469,0 -19.4296882,-8.69922 -19.4296882,-19.42968 V 25.177737 c 0,-10.730468 8.6992192,-19.4296875 19.4296882,-19.4296875 z m 0,0"
       id="path2" />
    <path
       d="m 99.614048,64 c 0,3.373625 -0.498597,6.620976 -1.375998,9.712924 H 91.435767 C 92.520377,70.669543 93.138766,67.409238 93.138766,64 93.138766,47.934826 80.068411,34.861232 64,34.861232 c -5.523415,0 -10.671263,1.567018 -15.067979,4.254261 l 6.012298,8.696303 H 32.300261 l 6.967402,-22.663486 5.989635,8.654213 C 50.706248,30.406238 57.100588,28.385951 64,28.385951 83.66543,28.385951 99.614048,44.331333 99.614048,64 Z M 79.042079,88.903935 C 74.6486,91.578226 69.510464,93.138767 64,93.138767 47.931589,93.138767 34.861233,80.065174 34.861233,64 c 0,-3.409236 0.61839,-6.66954 1.699762,-9.712922 h -6.799046 c -0.8774,3.091946 -1.375997,6.3393 -1.375997,9.712922 0,19.668669 15.94538,35.614049 35.614047,35.614049 6.886462,0 13.271089,-2.010574 18.713563,-5.397147 l 5.999348,8.634788 6.967403,-22.62787 H 73.036255 Z M 64,54.287078 c -5.364771,0 -9.712922,4.348151 -9.712922,9.712922 0,5.364772 4.348151,9.712924 9.712922,9.712924 5.364771,0 9.712922,-4.348152 9.712922,-9.712924 0,-5.364771 -4.348151,-9.712922 -9.712922,-9.712922 z"
       id="path2-3"
       style="stroke-width:3.23764;fill:#2a7fff" />
  </g>
</svg>
